<mxfile host="app.diagrams.net" agent="Mozilla/5.0 (Windows NT 10.0; Win64; x64) AppleWebKit/537.36 (KHTML, like Gecko) Chrome/129.0.0.0 Safari/537.36 Edg/129.0.0.0" version="24.7.17">
  <diagram name="Page-1" id="Ent0eq0ngWV7VVmPij7X">
    <mxGraphModel dx="265" dy="446" grid="1" gridSize="10" guides="1" tooltips="1" connect="1" arrows="1" fold="1" page="1" pageScale="1" pageWidth="827" pageHeight="1169" math="0" shadow="0">
      <root>
        <mxCell id="0" />
        <mxCell id="1" parent="0" />
        <mxCell id="V14ZNRUxUjlRDz9VY0Ms-3" style="edgeStyle=orthogonalEdgeStyle;rounded=0;orthogonalLoop=1;jettySize=auto;html=1;exitX=0.5;exitY=1;exitDx=0;exitDy=0;entryX=0.5;entryY=1;entryDx=0;entryDy=0;" edge="1" parent="1" source="V14ZNRUxUjlRDz9VY0Ms-1" target="V14ZNRUxUjlRDz9VY0Ms-2">
          <mxGeometry relative="1" as="geometry" />
        </mxCell>
        <mxCell id="V14ZNRUxUjlRDz9VY0Ms-1" value="Start" style="ellipse;whiteSpace=wrap;html=1;" vertex="1" parent="1">
          <mxGeometry x="330" y="40" width="90" height="40" as="geometry" />
        </mxCell>
        <mxCell id="V14ZNRUxUjlRDz9VY0Ms-2" value="" style="shape=trapezoid;perimeter=trapezoidPerimeter;whiteSpace=wrap;html=1;fixedSize=1;rotation=-180;" vertex="1" parent="1">
          <mxGeometry x="317.5" y="100" width="112.5" height="30" as="geometry" />
        </mxCell>
        <mxCell id="V14ZNRUxUjlRDz9VY0Ms-6" style="edgeStyle=orthogonalEdgeStyle;rounded=0;orthogonalLoop=1;jettySize=auto;html=1;exitX=0.5;exitY=1;exitDx=0;exitDy=0;entryX=0.5;entryY=0;entryDx=0;entryDy=0;" edge="1" parent="1" source="V14ZNRUxUjlRDz9VY0Ms-4" target="V14ZNRUxUjlRDz9VY0Ms-5">
          <mxGeometry relative="1" as="geometry" />
        </mxCell>
        <mxCell id="V14ZNRUxUjlRDz9VY0Ms-4" value="x1, y1, x2, y2" style="text;html=1;align=center;verticalAlign=middle;whiteSpace=wrap;rounded=0;" vertex="1" parent="1">
          <mxGeometry x="330" y="100" width="90" height="30" as="geometry" />
        </mxCell>
        <mxCell id="V14ZNRUxUjlRDz9VY0Ms-9" style="edgeStyle=orthogonalEdgeStyle;rounded=0;orthogonalLoop=1;jettySize=auto;html=1;exitX=0.5;exitY=1;exitDx=0;exitDy=0;entryX=0.5;entryY=0;entryDx=0;entryDy=0;" edge="1" parent="1" source="V14ZNRUxUjlRDz9VY0Ms-5" target="V14ZNRUxUjlRDz9VY0Ms-7">
          <mxGeometry relative="1" as="geometry" />
        </mxCell>
        <mxCell id="V14ZNRUxUjlRDz9VY0Ms-5" value="dx = x2 - x1" style="rounded=0;whiteSpace=wrap;html=1;" vertex="1" parent="1">
          <mxGeometry x="323.75" y="150" width="100" height="30" as="geometry" />
        </mxCell>
        <mxCell id="V14ZNRUxUjlRDz9VY0Ms-11" style="edgeStyle=orthogonalEdgeStyle;rounded=0;orthogonalLoop=1;jettySize=auto;html=1;exitX=0.5;exitY=1;exitDx=0;exitDy=0;entryX=0.5;entryY=0;entryDx=0;entryDy=0;" edge="1" parent="1" source="V14ZNRUxUjlRDz9VY0Ms-7" target="V14ZNRUxUjlRDz9VY0Ms-10">
          <mxGeometry relative="1" as="geometry" />
        </mxCell>
        <mxCell id="V14ZNRUxUjlRDz9VY0Ms-7" value="dy = y2 - y1" style="rounded=0;whiteSpace=wrap;html=1;" vertex="1" parent="1">
          <mxGeometry x="322.75" y="196" width="100" height="30" as="geometry" />
        </mxCell>
        <mxCell id="V14ZNRUxUjlRDz9VY0Ms-13" style="edgeStyle=orthogonalEdgeStyle;rounded=0;orthogonalLoop=1;jettySize=auto;html=1;exitX=0.5;exitY=1;exitDx=0;exitDy=0;entryX=0.5;entryY=0;entryDx=0;entryDy=0;" edge="1" parent="1" source="V14ZNRUxUjlRDz9VY0Ms-10" target="V14ZNRUxUjlRDz9VY0Ms-12">
          <mxGeometry relative="1" as="geometry" />
        </mxCell>
        <mxCell id="V14ZNRUxUjlRDz9VY0Ms-10" value="d = sqrt(dx*dx + dy * dy)" style="rounded=0;whiteSpace=wrap;html=1;" vertex="1" parent="1">
          <mxGeometry x="307" y="242" width="136" height="30" as="geometry" />
        </mxCell>
        <mxCell id="V14ZNRUxUjlRDz9VY0Ms-15" style="edgeStyle=orthogonalEdgeStyle;rounded=0;orthogonalLoop=1;jettySize=auto;html=1;exitX=0.5;exitY=1;exitDx=0;exitDy=0;entryX=0.5;entryY=0;entryDx=0;entryDy=0;" edge="1" parent="1" source="V14ZNRUxUjlRDz9VY0Ms-12" target="V14ZNRUxUjlRDz9VY0Ms-14">
          <mxGeometry relative="1" as="geometry" />
        </mxCell>
        <mxCell id="V14ZNRUxUjlRDz9VY0Ms-12" value="d" style="shape=trapezoid;perimeter=trapezoidPerimeter;whiteSpace=wrap;html=1;fixedSize=1;" vertex="1" parent="1">
          <mxGeometry x="332" y="290" width="86" height="30" as="geometry" />
        </mxCell>
        <mxCell id="V14ZNRUxUjlRDz9VY0Ms-14" value="KRAJ" style="ellipse;whiteSpace=wrap;html=1;" vertex="1" parent="1">
          <mxGeometry x="346.5" y="338" width="57" height="20" as="geometry" />
        </mxCell>
      </root>
    </mxGraphModel>
  </diagram>
</mxfile>
